Coordinates
version=1
nRows=26
nColumns=24
inDegrees=yes

Units are S.I. units (second, meters, Newtons, ...)
Angles are in degrees.

endheader
time	pelvis_tilt	pelvis_list	pelvis_rotation	pelvis_tx	pelvis_ty	pelvis_tz	hip_flexion_r	hip_adduction_r	hip_rotation_r	knee_angle_r	ankle_angle_r	subtalar_angle_r	mtp_angle_r	hip_flexion_l	hip_adduction_l	hip_rotation_l	knee_angle_l	ankle_angle_l	subtalar_angle_l	mtp_angle_l	lumbar_extension	lumbar_bending	lumbar_rotation
      0.93316667	     -2.26764480	     -4.98782883	     -6.84517530	     -0.19369746	      1.00500478	      0.34265337	     -7.62553850	      6.34480123	     -0.55882202	    -11.40326875	      6.61121398	     -8.61948412	     -1.74681333	     25.55611680	     -7.55233084	    -10.67269573	     -7.53745961	      0.94120185	     -9.01187069	    -13.74941195	     -7.66563880	      6.13932420	      9.61173658
      0.93733333	     -2.18170833	     -4.98031038	     -6.95707968	     -0.18788123	      1.00444009	      0.34274414	     -7.85882572	      6.22565009	     -0.58009273	    -11.84667127	      6.75745855	     -8.30279613	     -1.62851934	     25.23422264	     -7.52831356	    -10.79575767	     -7.23331945	      0.82337838	     -9.11172032	    -13.72025401	     -7.72229258	      6.04220210	      9.69268435
      0.94150000	     -2.11296502	     -4.99066198	     -7.06192537	     -0.18208865	      1.00386581	      0.34285464	     -8.05628286	      6.13219593	     -0.58978041	    -12.32538055	      6.89918425	     -8.02098798	     -1.53675127	     24.96072807	     -7.53051741	    -10.92393772	     -7.05607746	      0.69077856	     -9.21477155	    -13.69756065	     -7.76181937	      5.98282132	      9.73088890
      0.94566667	     -1.95720267	     -4.91094561	     -7.16325515	     -0.17620388	      1.00349752	      0.34293603	     -8.32086960	      5.91742293	     -0.66216687	    -12.82933338	      6.96029348	     -7.67107155	     -1.34664834	     24.56371100	     -7.42249974	    -11.03840459	     -6.88872663	      0.52657724	     -9.36546798	    -13.64305892	     -7.89173313	      5.75640299	      9.88339827
      0.94983333	     -1.79211593	     -4.86720307	     -7.26678243	     -0.17037204	      1.00317517	      0.34304930	     -8.57772720	      5.74425097	     -0.70011518	    -13.36751020	      7.02068723	     -7.36704123	     -1.00317056	     24.18231936	     -7.36003276	    -11.16596653	     -6.82977691	      0.32868638	     -9.54326846	    -13.53492408	     -8.03990520	      5.60415221	      9.99218290
      0.95400000	     -1.71038028	     -4.78030165	     -7.37022900	     -0.16447241	      1.00274508	      0.34317000	     -8.70903589	      5.53265394	     -0.76665903	    -13.97214391	      7.05647682	     -7.06440859	     -0.74230502	     23.91008870	     -7.26686924	    -11.30821968	     -6.86998339	      0.14817381	     -9.68538464	    -13.44923492	     -8.06352591	      5.39811766	     10.04464606
      0.95816667	     -1.61028068	     -4.69218184	     -7.46829838	     -0.15861449	      1.00238570	      0.34330104	     -8.83250597	      5.31912798	     -0.82093607	    -14.61936438	      7.06563913	     -6.76132148	     -0.44966357	     23.63136005	     -7.17079140	    -11.42469409	     -6.97596864	     -0.07374280	     -9.87937271	    -13.34946436	     -8.12547958	      5.17387003	     10.09966053
      0.96233333	     -1.54102164	     -4.62910794	     -7.58178265	     -0.15283262	      1.00200769	      0.34347878	     -8.88247877	      5.14031435	     -0.82999915	    -15.34104190	      7.05041837	     -6.50555612	     -0.29828389	     23.40882845	     -7.11913713	    -11.54681478	     -7.17521002	     -0.27762724	    -10.05616267	    -13.29890531	     -8.16101898	      5.00375028	     10.06929807
      0.96650000	     -1.24765682	     -4.47293272	     -7.60114069	     -0.14683877	      1.00208236	      0.34344522	     -9.18647252	      4.82511730	     -0.99086075	    -15.99683487	      6.87523450	     -6.31321401	      1.76180501	     22.89874434	     -6.88701563	    -11.59955929	     -7.27437107	     -0.69160247	    -10.41892564	    -12.53780880	     -8.41612870	      4.68740706	      9.94717753
      0.97066667	     -1.25286581	     -4.37959322	     -7.69595018	     -0.14105786	      1.00163466	      0.34357958	     -9.07101224	      4.61479443	     -1.07021709	    -16.86519476	      6.81491436	     -5.94806435	      1.90818932	     22.80783847	     -6.81584769	    -11.72784119	     -7.63867071	     -0.85531489	    -10.54838698	    -12.48601819	     -8.35428040	      4.47369387	     10.11759676
      0.97483333	     -1.19826317	     -4.24557197	     -7.76609606	     -0.13520572	      1.00137050	      0.34368901	     -9.00255008	      4.36034951	     -1.15535053	    -17.74361545	      6.63619025	     -5.73574604	      2.08389568	     22.63066933	     -6.67965778	    -11.82383103	     -7.96402353	     -1.16766435	    -10.78494893	    -12.42591301	     -8.34486094	      4.19997151	     10.14874397
      0.97900000	     -1.11071028	     -4.09803658	     -7.80650155	     -0.12936370	      1.00119630	      0.34371319	     -8.92811502	      4.08211532	     -1.29002010	    -18.68467203	      6.42169269	     -5.48835336	      2.31778785	     22.42764086	     -6.51053224	    -11.88174254	     -8.31339405	     -1.49329924	    -11.07345156	    -12.34701067	     -8.37631941	      3.91533756	     10.16109192
      0.98316667	     -1.04677756	     -3.96237355	     -7.67000690	     -0.12351101	      1.00093755	      0.34327772	     -8.79795395	      3.81641617	     -1.67334580	    -19.66939204	      6.11356025	     -5.27482209	      9.55137547	     22.31687166	     -6.27077702	    -11.70944628	     -8.73518369	     -1.83609825	    -11.48204868	     -9.87711646	     -8.37515488	      3.68844206	      9.98816223
      0.98733333	     -0.95631491	     -3.81226109	     -7.73321107	     -0.11771179	      1.00089057	      0.34343584	     -8.64854390	      3.54671794	     -1.72841913	    -20.72079055	      5.68804721	     -5.17950282	      9.58207837	     22.12459496	     -6.12775788	    -11.83503104	     -9.15223921	     -2.16756048	    -11.70668275	     -9.86703731	     -8.41464987	      3.37747958	      9.97309993
      0.99150000	     -0.86573496	     -3.63532833	     -7.73878528	     -0.11192687	      1.00084528	      0.34341666	     -8.43988007	      3.24001279	     -1.88968772	    -21.87369703	      5.28526276	     -5.03396642	      9.64499013	     21.95328055	     -5.92619565	    -11.88068440	     -9.59261629	     -2.47326833	    -11.95896109	     -9.84961542	     -8.45216669	      3.04632710	      9.95985274
      0.99566667	     -0.77180639	     -3.45687672	     -7.68474145	     -0.10619029	      1.00081331	      0.34317639	     -8.17785165	      2.91903974	     -2.15053724	    -23.12177013	      4.87822520	     -4.84267894	      9.79527601	     21.79387548	     -5.68463580	    -11.82683053	    -10.03121338	     -2.85317486	    -12.33265553	     -9.81472782	     -8.49685633	      2.75925488	      9.90048172
      0.99983333	     -0.69998777	     -3.27920470	     -7.61704284	     -0.10043095	      1.00080137	      0.34303319	     -7.86889522	      2.62249439	     -2.36413381	    -24.38698964	      4.26060436	     -4.79663418	      9.90309621	     21.67695536	     -5.46208981	    -11.78728292	    -10.53638998	     -3.05336415	    -12.53304302	     -9.79228767	     -8.51930388	      2.42191553	      9.79422605
      1.00400000	     -0.70796041	     -3.08719663	     -7.46908229	     -0.09477925	      1.00062259	      0.34252626	     -7.38582754	      2.29177601	     -2.74003384	    -25.81954626	      3.77848482	     -4.59561923	     10.23795089	     21.67821584	     -5.17304446	    -11.58884290	    -11.03680455	     -3.45995354	    -13.03416472	     -9.73751726	     -8.45657420	      2.14450376	      9.60262402
      1.00816667	     -0.76758598	     -2.92848458	     -7.13482004	     -0.08908115	      1.00032658	      0.34160507	     -6.84278116	      2.00468293	     -3.31311166	    -27.25485150	      3.07075444	     -4.48443876	     11.23194414	     21.79491463	     -4.84496589	    -11.14780946	    -11.62724040	     -3.62750944	    -13.44209465	     -9.60118057	     -8.33325725	      1.94142150	      9.25502849
      1.01233333	     -0.80734752	     -2.75555894	     -6.89936626	     -0.08344621	      1.00014374	      0.34094485	     -6.25858585	      1.70045726	     -3.73839309	    -28.76822750	      2.25924957	     -4.54542638	     15.31537771	     21.85523908	     -4.55021219	    -10.85717817	    -12.18114027	     -3.84889460	    -13.83309743	     -9.19567004	     -8.24290827	      1.70163959	      8.73779808
      1.01650000	     -0.67117766	     -2.50662831	     -6.85071324	     -0.07776959	      1.00035814	      0.34081027	     -5.80194952	      1.29304204	     -3.94472174	    -30.35829812	      1.46548909	     -4.63009680	     15.37737833	     21.64220417	     -4.26496636	    -10.91547830	    -12.65710711	     -3.90421972	    -13.85549675	     -9.19053270	     -8.34322626	      1.29038973	      8.76067783
      1.02066667	     -0.68498664	     -2.23936789	     -6.75180957	     -0.07219035	      1.00028851	      0.34046150	     -5.10547900	      0.86601640	     -4.22957556	    -32.08704247	      0.69409320	     -4.68351530	     15.55831704	     21.61911887	     -3.93800750	    -10.86322078	    -13.13777473	     -4.12346805	    -14.14170632	     -9.18854258	     -8.27771383	      0.89893832	      8.65966250
      1.02483333	     -0.80828580	     -2.01066503	     -6.49465033	     -0.06665133	      0.99998206	      0.33967982	     -4.26852525	      0.48003237	     -4.67095712	    -33.85948062	     -0.16341059	     -4.73235382	     15.90305006	     21.76320277	     -3.57905749	    -10.53780273	    -13.68785427	     -4.14867192	    -14.48301477	     -9.19516892	     -8.09978869	      0.59702299	      8.34948594
      1.02900000	     -0.85732042	     -1.75325290	     -6.26295835	     -0.06110550	      0.99983159	      0.33899717	     -3.47597013	      0.05126842	     -5.07307317	    -35.67089998	     -1.06481056	     -4.89178878	     16.23839013	     21.79402018	     -3.20303649	    -10.31640665	    -14.18246538	     -4.17299283	    -14.70412886	     -9.21903180	     -8.00237769	      0.25512662	      8.03811552
      1.03316667	     -0.94164928	     -1.49359793	     -5.92441482	     -0.05556960	      0.99957937	      0.33803731	     -2.62497313	     -0.39832427	     -5.59527825	    -37.52342865	     -1.96937118	     -5.05725755	     16.74296866	     21.88201469	     -2.77868980	     -9.97945066	    -14.69153799	     -4.14123027	    -14.87685054	     -9.28480359	     -7.86756380	     -0.06379683	      7.72125770
      1.03733333	     -0.87737837	     -1.18137447	     -5.77384939	     -0.05003710	      0.99968742	      0.33759847	     -1.88397807	     -0.89955187	     -5.86503232	    -39.40116133	     -2.91551291	     -5.38756801	     16.88487403	     21.71774264	     -2.38224063	     -9.93995393	    -15.07231072	     -4.13519369	    -14.95293100	     -9.31372304	     -7.90486105	     -0.50247878	      7.45922006
